<?xml version="1.0" encoding="utf-8" ?>
<svg baseProfile="full" height="1600px" version="1.1" width="2200px" xmlns="http://www.w3.org/2000/svg" xmlns:ev="http://www.w3.org/2001/xml-events" xmlns:xlink="http://www.w3.org/1999/xlink"><defs /><rect fill="#0F172A" height="1600px" width="2200px" x="0" y="0" /><text fill="white" font-family="Arial" font-size="34px" font-weight="bold" x="380" y="70">CyberGuard AI - End-to-End Autonomous Security Agent Architecture</text><rect fill="#2563EB" height="220" rx="20" ry="20" stroke="white" stroke-width="3" width="330" x="100" y="180" /><text fill="white" font-family="Arial" font-size="22px" font-weight="bold" x="120" y="220">1 SIEM Log Telemetry</text><text fill="#E2E8F0" font-family="Arial" font-size="17px" x="120" y="255">• 6,000 Host Connection Logs</text><text fill="#E2E8F0" font-family="Arial" font-size="17px" x="120" y="283">• Ingress Protocol Trackers</text><text fill="#E2E8F0" font-family="Arial" font-size="17px" x="120" y="311">• Vulnerability Surface Mapping</text><text fill="#E2E8F0" font-family="Arial" font-size="17px" x="120" y="339">• Ground-Truth Labelling</text><rect fill="#9333EA" height="220" rx="20" ry="20" stroke="white" stroke-width="3" width="330" x="520" y="180" /><text fill="white" font-family="Arial" font-size="22px" font-weight="bold" x="540" y="220">2 Feature Engineering</text><text fill="#E2E8F0" font-family="Arial" font-size="17px" x="540" y="255">• Traffic Intensity Index</text><text fill="#E2E8F0" font-family="Arial" font-size="17px" x="540" y="283">• Legacy Patch Flags</text><text fill="#E2E8F0" font-family="Arial" font-size="17px" x="540" y="311">• One-Hot Encoded Profiles</text><text fill="#E2E8F0" font-family="Arial" font-size="17px" x="540" y="339">• Data Cleaning Pipelines</text><rect fill="#059669" height="220" rx="20" ry="20" stroke="white" stroke-width="3" width="330" x="940" y="180" /><text fill="white" font-family="Arial" font-size="22px" font-weight="bold" x="960" y="220">3 Machine Learning Core</text><text fill="#E2E8F0" font-family="Arial" font-size="17px" x="960" y="255">• RandomForest vs. GradientBoost</text><text fill="#E2E8F0" font-family="Arial" font-size="17px" x="960" y="283">• Hyperparameter Grid Tuning</text><text fill="#E2E8F0" font-family="Arial" font-size="17px" x="960" y="311">• Multi-Class Stratification</text><text fill="#E2E8F0" font-family="Arial" font-size="17px" x="960" y="339">• Anomaly Vector Boundaries</text><rect fill="#EA580C" height="220" rx="20" ry="20" stroke="white" stroke-width="3" width="330" x="1360" y="180" /><text fill="white" font-family="Arial" font-size="22px" font-weight="bold" x="1380" y="220">4 Explainability Matrix</text><text fill="#E2E8F0" font-family="Arial" font-size="17px" x="1380" y="255">• Kernel SHAP Feature Values</text><text fill="#E2E8F0" font-family="Arial" font-size="17px" x="1380" y="283">• Confusion Matrix Val</text><text fill="#E2E8F0" font-family="Arial" font-size="17px" x="1380" y="311">• Precision/Recall Balancing</text><text fill="#E2E8F0" font-family="Arial" font-size="17px" x="1380" y="339">• Gini Attribute Splits</text><rect fill="#DC2626" height="220" rx="20" ry="20" stroke="white" stroke-width="3" width="330" x="1780" y="180" /><text fill="white" font-family="Arial" font-size="22px" font-weight="bold" x="1800" y="220">5 Playbook Decision Router</text><text fill="#E2E8F0" font-family="Arial" font-size="17px" x="1800" y="255">• Threat Score Calibration</text><text fill="#E2E8F0" font-family="Arial" font-size="17px" x="1800" y="283">• Vulnerability Threshold Map</text><text fill="#E2E8F0" font-family="Arial" font-size="17px" x="1800" y="311">• Signature Override Checks</text><text fill="#E2E8F0" font-family="Arial" font-size="17px" x="1800" y="339">• Hardening Trigger Mapping</text><line stroke="#38BDF8" stroke-width="6" x1="430" x2="520" y1="290" y2="290" /><polygon fill="#38BDF8" points="520,290 502,282 502,298" /><line stroke="#38BDF8" stroke-width="6" x1="850" x2="940" y1="290" y2="290" /><polygon fill="#38BDF8" points="940,290 922,282 922,298" /><line stroke="#38BDF8" stroke-width="6" x1="1270" x2="1360" y1="290" y2="290" /><polygon fill="#38BDF8" points="1360,290 1342,282 1342,298" /><line stroke="#38BDF8" stroke-width="6" x1="1690" x2="1780" y1="290" y2="290" /><polygon fill="#38BDF8" points="1780,290 1762,282 1762,298" /><rect fill="#0EA5E9" height="250" rx="20" ry="20" stroke="white" stroke-width="3" width="420" x="310" y="700" /><text fill="white" font-family="Arial" font-size="22px" font-weight="bold" x="330" y="740">6 Syslog Regex Parser Intercept</text><text fill="#E2E8F0" font-family="Arial" font-size="17px" x="330" y="775">• Raw String Decoupling</text><text fill="#E2E8F0" font-family="Arial" font-size="17px" x="330" y="803">• Active Signature Mapping</text><text fill="#E2E8F0" font-family="Arial" font-size="17px" x="330" y="831">• Variable Log Extraction</text><text fill="#E2E8F0" font-family="Arial" font-size="17px" x="330" y="859">• Telemetry Frame Packaging</text><rect fill="#16A34A" height="250" rx="20" ry="20" stroke="white" stroke-width="3" width="420" x="900" y="700" /><text fill="white" font-family="Arial" font-size="22px" font-weight="bold" x="920" y="740">7 Mitigation Execution Engine</text><text fill="#E2E8F0" font-family="Arial" font-size="17px" x="920" y="775">• Adaptive Connection Throttling</text><text fill="#E2E8F0" font-family="Arial" font-size="17px" x="920" y="803">• Quarantine VLAN Isolation</text><text fill="#E2E8F0" font-family="Arial" font-size="17px" x="920" y="831">• BGP Null-Route Traffic Blocks</text><text fill="#E2E8F0" font-family="Arial" font-size="17px" x="920" y="859">• Volatile Memory RAM Dumps</text><rect fill="#7C3AED" height="250" rx="20" ry="20" stroke="white" stroke-width="3" width="420" x="1490" y="700" /><text fill="white" font-family="Arial" font-size="22px" font-weight="bold" x="1510" y="740">8 Unified Threat Command Hub</text><text fill="#E2E8F0" font-family="Arial" font-size="17px" x="1510" y="775">• Gradio Dashboard Panel</text><text fill="#E2E8F0" font-family="Arial" font-size="17px" x="1510" y="803">• Interactive Attack Simulator</text><text fill="#E2E8F0" font-family="Arial" font-size="17px" x="1510" y="831">• Forensics Incident PDF Generation</text><text fill="#E2E8F0" font-family="Arial" font-size="17px" x="1510" y="859">• SHAP Feature View Tool</text><line stroke="#38BDF8" stroke-width="6" x1="730" x2="900" y1="820" y2="820" /><polygon fill="#38BDF8" points="900,820 882,812 882,828" /><line stroke="#38BDF8" stroke-width="6" x1="1320" x2="1490" y1="820" y2="820" /><polygon fill="#38BDF8" points="1490,820 1472,812 1472,828" /><line stroke="#38BDF8" stroke-width="6" x1="1945" x2="1945" y1="400" y2="560" /><polygon fill="#38BDF8" points="1945,560 1927,552 1927,568" /><line stroke="#38BDF8" stroke-width="6" x1="1945" x2="1700" y1="560" y2="700" /><polygon fill="#38BDF8" points="1700,700 1682,692 1682,708" /><line stroke="#38BDF8" stroke-width="6" x1="1600" x2="1600" y1="400" y2="560" /><polygon fill="#38BDF8" points="1600,560 1582,552 1582,568" /><line stroke="#38BDF8" stroke-width="6" x1="1600" x2="1110" y1="560" y2="700" /><polygon fill="#38BDF8" points="1110,700 1092,692 1092,708" /><line stroke="#38BDF8" stroke-width="6" x1="1110" x2="1110" y1="400" y2="560" /><polygon fill="#38BDF8" points="1110,560 1092,552 1092,568" /><line stroke="#38BDF8" stroke-width="6" x1="1110" x2="520" y1="560" y2="700" /><polygon fill="#38BDF8" points="520,700 502,692 502,708" /><rect fill="#111827" height="170" rx="25" stroke="#38BDF8" stroke-width="4" width="1700" x="250" y="1250" /><text fill="white" font-family="Arial" font-size="30px" font-weight="bold" x="850" y="1305">Autonomous Agent Deliverables Matrix</text><text fill="#22C55E" font-family="Arial" font-size="17px" font-weight="bold" x="265" y="1360">Threat Severity Score</text><text fill="#22C55E" font-family="Arial" font-size="17px" font-weight="bold" x="507" y="1360">Anomaly Class Target</text><text fill="#22C55E" font-family="Arial" font-size="17px" font-weight="bold" x="749" y="1360">Hardening Automation</text><text fill="#22C55E" font-family="Arial" font-size="17px" font-weight="bold" x="991" y="1360">Sub-ms Execution Playbooks</text><text fill="#22C55E" font-family="Arial" font-size="17px" font-weight="bold" x="1233" y="1360">SHAP Attack Vectors</text><text fill="#22C55E" font-family="Arial" font-size="17px" font-weight="bold" x="1475" y="1360">Forensic PDF Audit Generation</text><text fill="#22C55E" font-family="Arial" font-size="17px" font-weight="bold" x="1717" y="1360">Gradio Threat Interface</text></svg>